<?xml version="1.0" standalone="no"?>
<!DOCTYPE svg PUBLIC "-//W3C//DTD SVG 20010904//EN"
 "http://www.w3.org/TR/2001/REC-SVG-20010904/DTD/svg10.dtd">
<svg version="1.0" xmlns="http://www.w3.org/2000/svg"
 width="64.000000pt" height="64.000000pt" viewBox="0 0 64.000000 64.000000"
 preserveAspectRatio="xMidYMid meet">

<g transform="translate(0.000000,64.000000) scale(0.100000,-0.100000)"
fill="#cb5eee" stroke="none">
<path d="M72 568 c-15 -15 -16 -64 -2 -73 6 -4 10 -57 10 -126 0 -152 5 -159
118 -159 80 -1 112 -13 112 -44 0 -9 -5 -16 -10 -16 -6 0 -16 -11 -22 -25 -9
-21 -8 -28 7 -45 24 -27 51 -25 70 4 13 19 14 29 5 45 -6 12 -15 21 -20 21 -6
0 -10 7 -10 16 0 31 32 43 113 44 112 0 117 7 117 159 0 69 4 122 10 126 14 9
13 58 -2 73 -17 17 -479 17 -496 0z m488 -38 l0 -30 -240 0 -240 0 0 30 0 30
240 0 240 0 0 -30z m-295 -60 c3 -5 28 -10 55 -10 27 0 52 5 55 10 3 6 42 10
86 10 l80 0 -3 -122 -3 -123 -215 0 -215 0 -3 123 -3 122 80 0 c44 0 83 -4 86
-10z m80 -360 c0 -18 -6 -26 -23 -28 -13 -2 -25 3 -28 12 -10 26 4 48 28 44
17 -2 23 -10 23 -28z"/>
<path d="M120 450 c0 -5 20 -10 45 -10 25 0 45 5 45 10 0 6 -20 10 -45 10 -25
0 -45 -4 -45 -10z"/>
<path d="M451 436 c-6 -8 -10 -19 -9 -24 5 -18 -56 -102 -73 -102 -18 0 -56
38 -73 72 -15 29 -37 29 -52 0 -17 -35 -56 -72 -75 -72 -9 0 -22 -7 -29 -16
-11 -12 -10 -18 3 -31 13 -13 19 -14 31 -3 9 7 16 17 16 23 0 20 53 67 75 67
22 0 75 -47 75 -67 0 -6 7 -16 15 -23 12 -10 18 -10 30 0 8 7 14 19 13 26 -4
17 53 103 68 104 6 0 17 7 24 15 10 12 10 18 0 30 -15 19 -24 19 -39 1z m29
-16 c0 -5 -4 -10 -10 -10 -5 0 -10 5 -10 10 0 6 5 10 10 10 6 0 10 -4 10 -10z
m-200 -40 c0 -5 -4 -10 -10 -10 -5 0 -10 5 -10 10 0 6 5 10 10 10 6 0 10 -4
10 -10z m-110 -100 c0 -5 -4 -10 -10 -10 -5 0 -10 5 -10 10 0 6 5 10 10 10 6
0 10 -4 10 -10z m210 0 c0 -5 -4 -10 -10 -10 -5 0 -10 5 -10 10 0 6 5 10 10
10 6 0 10 -4 10 -10z"/>
<path d="M120 410 c0 -5 11 -10 25 -10 14 0 25 5 25 10 0 6 -11 10 -25 10 -14
0 -25 -4 -25 -10z"/>
</g>
</svg>
